<?xml version="1.0" encoding="UTF-8"?>
<svg xmlns="http://www.w3.org/2000/svg" xmlns:xlink="http://www.w3.org/1999/xlink" width="256px" height="298px" viewBox="0 0 256 298" version="1.1">
<g id="surface1">
<path style="fill-rule:evenodd;fill:rgb(38.039216%,73.333333%,27.45098%);fill-opacity:1;stroke-width:6.28089;stroke-linecap:butt;stroke-linejoin:miter;stroke:rgb(38.039216%,73.333333%,27.45098%);stroke-opacity:1;stroke-miterlimit:2.6131;" d="M 54.228925 423.010301 C 54.580069 422.429432 54.946481 421.863849 55.312892 421.313552 C 115.053259 328.955414 209.282122 274.904044 297.892673 274.904044 C 388.121543 274.904044 444.839013 324.568326 519.419052 324.568326 C 591.785353 324.568326 635.861621 274.827614 740.182072 274.827614 C 818.991112 274.827614 902.548236 317.934193 962.074862 392.453545 C 945.616872 401.502869 930.7772 411.775075 917.494778 423.071445 Z M 54.228925 423.010301 " transform="matrix(0.25586,0,0,0.255544,0.00000000895105,-0.0000626187)"/>
<path style="fill-rule:evenodd;fill:rgb(38.039216%,73.333333%,27.45098%);fill-opacity:1;stroke-width:6.28089;stroke-linecap:butt;stroke-linejoin:miter;stroke:rgb(38.039216%,73.333333%,27.45098%);stroke-opacity:1;stroke-miterlimit:2.6131;" d="M 661.052423 191.610517 C 698.91496 142.786966 727.708809 73.831726 717.281344 3.332598 C 655.373042 7.597397 582.960939 47.172905 540.670928 98.702082 C 502.289307 145.507878 470.609966 214.921698 482.945825 282.348337 C 550.533508 284.457807 620.441798 243.934566 661.052423 191.610517 Z M 661.052423 191.610517 " transform="matrix(0.25586,0,0,0.255544,0.00000000895105,-0.0000626187)"/>
<path style=" stroke:none;fill-rule:evenodd;fill:rgb(99.215686%,72.156863%,15.294118%);fill-opacity:1;" d="M 13.085938 107.75 C 6.503906 118.089844 1.953125 132.914062 0.742188 145.917969 L 214.269531 145.910156 C 216.578125 131.6875 224.257812 118.097656 236.421875 107.765625 L 13.085938 107.75 L 13.101562 107.75 Z M 13.085938 107.75 "/>
<path style="fill-rule:evenodd;fill:rgb(96.078431%,50.980392%,12.156863%);fill-opacity:1;stroke-width:6.28089;stroke-linecap:butt;stroke-linejoin:miter;stroke:rgb(96.078431%,50.980392%,12.156863%);stroke-opacity:1;stroke-miterlimit:2.6131;" d="M 10.488534 719.024095 C 2.366409 667.06691 1.053433 616.974619 6.152662 571.009555 L 834.197196 570.978983 C 826.105605 620.826697 832.899488 672.692165 853.388006 719.069953 Z M 10.488534 719.024095 " transform="matrix(0.25586,0,0,0.255544,0.00000000895105,-0.0000626187)"/>
<path style="fill-rule:evenodd;fill:rgb(87.843137%,22.745098%,24.313725%);fill-opacity:1;stroke-width:6.28089;stroke-linecap:butt;stroke-linejoin:miter;stroke:rgb(87.843137%,22.745098%,24.313725%);stroke-opacity:1;stroke-miterlimit:2.6131;" d="M 50.946487 867.038635 C 31.389265 817.313209 18.01524 767.373779 10.488534 719.024095 L 853.388006 719.069953 C 879.479569 778.135137 927.769571 828.33443 995.769467 854.121947 C 993.754203 858.631323 991.800008 862.957267 989.922148 867.115065 Z M 50.946487 867.038635 " transform="matrix(0.25586,0,0,0.255544,0.00000000895105,-0.0000626187)"/>
<path style="fill-rule:evenodd;fill:rgb(58.823529%,23.921569%,59.215686%);fill-opacity:1;stroke-width:6.28089;stroke-linecap:butt;stroke-linejoin:miter;stroke:rgb(58.823529%,23.921569%,59.215686%);stroke-opacity:1;stroke-miterlimit:2.6131;" d="M 989.922148 867.099779 C 966.578672 918.644241 953.051975 945.394778 920.746681 994.783911 C 916.395543 1001.402758 911.907 1008.189752 907.219984 1015.037889 L 129.175375 1015.114319 C 126.686829 1011.38453 124.21355 1007.654741 121.786073 1003.955524 C 92.702148 959.473203 69.144932 913.339992 50.946487 867.038635 Z M 989.922148 867.099779 " transform="matrix(0.25586,0,0,0.255544,0.00000000895105,-0.0000626187)"/>
<path style="fill-rule:evenodd;fill:rgb(0%,61.568627%,86.27451%);fill-opacity:1;stroke-width:6.28089;stroke-linecap:butt;stroke-linejoin:miter;stroke:rgb(0%,61.568627%,86.27451%);stroke-opacity:1;stroke-miterlimit:2.6131;" d="M 907.219984 1015.037889 C 859.632271 1085.047864 795.739239 1162.08941 718.197373 1162.823139 C 642.548634 1163.51101 623.128817 1113.388147 520.487752 1113.95373 C 417.846688 1114.534599 396.411607 1163.709728 320.762867 1162.991285 C 239.877495 1162.24227 177.068431 1086.576467 129.175375 1015.114319 Z M 907.219984 1015.037889 " transform="matrix(0.25586,0,0,0.255544,0.00000000895105,-0.0000626187)"/>
</g>
</svg>
